<?xml version="1.0" encoding="UTF-8"?>
<svg width="51px" height="52px" viewBox="0 0 51 52" version="1.1" xmlns="http://www.w3.org/2000/svg" xmlns:xlink="http://www.w3.org/1999/xlink">
    <!-- Generator: Sketch 53 (72520) - https://sketchapp.com -->
    <title>EHL logo</title>
    <desc>Created with Sketch.</desc>
    <g id="Symbols" stroke="none" stroke-width="1" fill="none" fill-rule="evenodd">
        <g id="Desktop-footer" transform="translate(-1089.000000, -155.000000)" fill="#FFFFFF">
            <g id="footer">
                <g id="Footer-Copy-6" transform="translate(0.000000, 121.000000)">
                    <g id="EHL-logo" transform="translate(1089.000000, 34.000000)">
                        <g id="equalhousing">
                            <path d="M25.7833333,0.10254348 L0.0515151515,14.6893536 L0.0515151515,19.9575249 L3.99242424,19.9575249 L3.99242424,38.0692671 L46.9431818,38.0692671 L46.9431818,19.9575249 L50.9613636,19.9575249 L50.9613636,14.8303509 L25.7833333,0.10254348 L25.7833333,0.10254348 Z M41.9848485,33.4548105 L9.22121212,33.4548105 L9.22121212,15.2661607 L25.7833333,5.58861968 L41.9848485,15.2661607 L41.9848485,33.4548105 L41.9848485,33.4548105 Z" id="Shape"></path>
                            <polygon id="Shape" points="16.9742424 22.1878456 16.9742424 17.7143862 34.1159091 17.7143862 34.1159091 22.1878456"></polygon>
                            <polygon id="Shape" points="16.9742424 24.3797125 34.1159091 24.3797125 34.1159091 28.8531718 16.9742424 28.8531718"></polygon>
                            <path d="M29.325,46.2599276 L26.3113636,46.2599276 L26.3113636,51.9639087 L29.2477273,51.9639087 C31.6174242,51.9639087 32.9825758,51.4640092 32.9825758,49.2208706 C32.9825758,46.9136423 31.4757576,46.2599276 29.325,46.2599276 L29.325,46.2599276 Z M29.1704545,50.733387 L27.8825758,50.733387 L27.8825758,47.4904494 L29.3121212,47.4904494 C30.3166667,47.4904494 31.2439394,48.0672565 31.2439394,49.2208706 C31.2568182,50.5154821 30.3939394,50.733387 29.1704545,50.733387 L29.1704545,50.733387 Z" id="Shape"></path>
                            <path d="M46.8272727,49.5797728 C47.9090909,49.4387755 48.3984848,49.0029657 48.3984848,48.0672565 C48.3984848,46.772645 47.7545455,46.2599276 46.1704545,46.2599276 L42.0106061,46.2599276 L42.0106061,51.9639087 L43.5818182,51.9639087 L43.5818182,49.5797728 L45.0886364,49.5797728 L46.7371212,51.9639087 L48.4628788,51.9639087 L46.8272727,49.5797728 L46.8272727,49.5797728 Z M45.8871212,48.362069 L43.594697,48.362069 L43.594697,47.4904494 L45.9643939,47.4904494 C46.6083333,47.4904494 46.8916667,47.567357 46.8916667,47.9262592 C46.8916667,48.362069 46.6727273,48.362069 45.8871212,48.362069 L45.8871212,48.362069 Z" id="Shape"></path>
                            <polygon id="Shape" points="17.669697 46.2599276 17.669697 51.9639087 19.1636364 51.9639087 19.1636364 48.5030663 22.1772727 51.9639087 23.9674242 51.9639087 23.9674242 46.2599276 22.4734848 46.2599276 22.4734848 49.7976777 19.4598485 46.2599276"></polygon>
                            <polygon id="Shape" points="2.88484848 46.2599276 2.88484848 51.9639087 8.53863636 51.9639087 8.53863636 50.733387 4.45606061 50.6692973 4.45606061 46.2599276"></polygon>
                            <polygon id="Shape" points="10.1613636 51.9639087 15.6863636 51.9639087 15.6863636 50.733387 11.8098485 50.733387 11.8098485 49.5156831 15.0424242 49.5156831 15.0424242 48.362069 11.8098485 48.362069 11.8098485 47.4904494 15.6863636 47.4904494 15.6863636 46.2599276 10.1613636 46.2599276"></polygon>
                            <polygon id="Shape" points="34.7469697 46.2599276 34.7469697 51.9639087 40.194697 51.8870011 40.194697 50.733387 36.3181818 50.733387 36.3181818 49.5156831 39.6151515 49.5156831 39.6151515 48.362069 36.3181818 48.362069 36.3181818 47.4904494 40.194697 47.4904494 40.194697 46.2599276"></polygon>
                            <path d="M16.7681818,39.7355987 L15.544697,39.7355987 L14.1151515,44.8627727 L15.1583333,44.8627727 L15.480303,43.7091585 L16.7681818,43.7091585 L17.0901515,44.8627727 L18.2106061,44.8627727 L16.7681818,39.7355987 L16.7681818,39.7355987 Z M15.6992424,42.8503569 L16.1242424,40.8251232 L16.6265152,42.8503569 L15.6992424,42.8503569 L15.6992424,42.8503569 Z" id="Shape"></path>
                            <path d="M9.27272727,44.1321504 C9.49166667,43.6963406 9.55606061,43.414346 9.55606061,42.7606313 L9.55606061,41.6839248 C9.55606061,40.453403 9.27272727,39.5946014 7.83030303,39.5946014 C6.54242424,39.5946014 6.10454545,40.3124058 6.10454545,41.6198351 L6.10454545,42.9913542 C6.10454545,44.7217754 7.10909091,44.798683 10.0454545,44.798683 L10.1227273,44.4397808 L9.27272727,44.1321504 L9.27272727,44.1321504 Z M8.48712121,42.9785362 C8.48712121,43.9142455 8.40984848,44.1321504 7.84318182,44.1321504 C7.34090909,44.1321504 7.19924242,43.8373379 7.19924242,42.9016286 L7.19924242,41.6711069 C7.19924242,40.7353976 7.27651515,40.4405851 7.92045455,40.4405851 C8.42272727,40.4405851 8.5,40.5815824 8.5,41.5941993 L8.5,42.9785362 L8.48712121,42.9785362 Z" id="Shape"></path>
                            <path d="M35.3780303,43.4912536 C35.3780303,44.2859656 35.880303,44.9396803 37.0265152,44.9396803 C37.9537879,44.9396803 38.8166667,44.2859656 38.8166667,43.4912536 C38.8166667,42.2607319 36.5242424,41.6839248 36.5242424,40.8892128 C36.5242424,40.5944003 36.8075758,40.453403 37.1037879,40.453403 C37.5287879,40.453403 37.7477273,40.7482155 37.9666667,41.1712074 L38.6878788,40.8763949 C38.6106061,40.1585905 38.1083333,39.5817835 37.0393939,39.5817835 C36.1765152,39.5817835 35.4681818,40.0175932 35.4681818,40.8763949 C35.4681818,42.3248216 37.7606061,42.6837237 37.7606061,43.619433 C37.7606061,43.9783352 37.5416667,44.1193325 37.1166667,44.1193325 C36.6916667,44.1193325 36.3954545,43.82452 36.2537879,43.3246205 L35.3780303,43.4912536 L35.3780303,43.4912536 L35.3780303,43.4912536 Z" id="Shape"></path>
                            <path d="M29.325,39.5946014 C28.2431818,39.5946014 27.5992424,40.1714085 27.5992424,41.5429275 L27.5992424,43.2092591 C27.5992424,44.4397808 27.9598485,44.9396803 29.325,44.9396803 C30.6901515,44.9396803 31.0507576,44.3628732 31.0507576,42.9913542 L31.0507576,41.4019302 C31.0507576,40.0945009 30.6901515,39.5946014 29.325,39.5946014 L29.325,39.5946014 Z M29.9689394,42.9785362 C29.9689394,43.8501558 29.75,44.1321504 29.325,44.1321504 C28.7454545,44.1321504 28.6810606,43.7732482 28.6810606,43.0554439 L28.6810606,41.4660199 C28.6810606,40.8123052 28.7583333,40.3893134 29.325,40.3893134 C29.9045455,40.3893134 29.9689394,40.8892128 29.9689394,41.4660199 L29.9689394,42.9785362 L29.9689394,42.9785362 Z" id="Shape"></path>
                            <path d="M44.9598485,42.9785362 C44.9598485,44.4910526 45.3848485,44.9268624 46.8272727,44.9268624 C47.9348485,44.9268624 48.2568182,44.401327 48.2568182,43.8501558 L48.2568182,42.1966422 L46.75,42.1966422 L46.75,42.9913542 L47.2522727,42.9913542 L47.2522727,43.5681613 C47.2522727,44.003971 47.1106061,44.2218759 46.75,44.2218759 C46.0287879,44.2218759 45.9643939,43.7219765 45.9643939,42.9913542 L45.9643939,41.83774 C45.9643939,40.9661204 46.0416667,40.3893134 46.75,40.3893134 C47.2522727,40.3893134 47.5356061,40.7482155 47.6128788,41.2609329 L48.3340909,40.9661204 C48.2568182,40.0945009 47.6901515,39.5946014 46.6856061,39.5946014 C45.2560606,39.5946014 44.9598485,40.3893134 44.9598485,41.4660199 L44.9598485,42.9785362 L44.9598485,42.9785362 L44.9598485,42.9785362 Z" id="Shape"></path>
                            <path d="M31.5015152,39.7355987 L31.5015152,42.6965417 C31.5015152,44.4269629 31.7977273,44.9781341 33.3045455,44.9781341 C34.4507576,44.9781341 34.8757576,44.3500553 34.8757576,42.837539 L34.8757576,39.7355987 L33.8712121,39.7355987 L33.8712121,42.6965417 C33.8712121,43.8501558 33.7939394,44.1449683 33.2272727,44.1449683 C32.6477273,44.1449683 32.5833333,43.7091585 32.5833333,42.632452 L32.5833333,39.7355987 L31.5015152,39.7355987 L31.5015152,39.7355987 L31.5015152,39.7355987 Z" id="Shape"></path>
                            <polygon id="Shape" points="41.0704545 39.7355987 41.0704545 44.8627727 41.9333333 44.8627727 41.9333333 41.3891123 43.1568182 44.8627727 44.444697 44.8627727 44.444697 39.7355987 43.5818182 39.7355987 43.5818182 42.9144466 42.4356061 39.7355987"></polygon>
                            <path d="M10.5992424,39.7355987 L10.5992424,42.837539 C10.5992424,44.2859656 10.7409091,44.9268624 12.1704545,44.9268624 C13.8189394,44.9268624 13.8962121,44.1321504 13.8962121,42.6837237 L13.8962121,39.7355987 L12.8916667,39.7355987 L12.8916667,42.7734493 C12.8916667,43.7860662 12.75,44.0680607 12.2477273,44.0680607 C11.6681818,44.0680607 11.6037879,43.7732482 11.6037879,42.6196341 L11.6037879,39.7355987 L10.5992424,39.7355987 L10.5992424,39.7355987 L10.5992424,39.7355987 Z" id="Shape"></path>
                            <polygon id="Shape" points="23.6325758 39.7355987 23.6325758 44.8627727 24.6371212 44.8627727 24.6371212 42.5555444 25.8606061 42.5555444 25.8606061 44.8627727 26.8651515 44.8627727 26.8651515 39.7355987 25.8606061 39.7355987 25.8606061 41.6839248 24.6371212 41.6839248 24.6371212 39.7355987"></polygon>
                            <polygon id="Shape" points="2.80757576 39.7355987 2.80757576 44.8627727 5.38333333 44.8627727 5.38333333 44.0680607 3.81212121 44.0680607 3.81212121 42.6196341 5.24166667 42.6196341 5.24166667 41.9018297 3.81212121 41.9018297 3.81212121 40.5303106 5.38333333 40.5303106 5.38333333 39.7355987"></polygon>
                            <polygon id="Shape" points="18.6613636 39.7355987 18.6613636 44.8627727 21.0310606 44.8627727 21.0310606 44.0680607 19.5242424 44.0680607 19.5242424 39.7355987"></polygon>
                            <polygon id="Shape" points="39.344697 39.7355987 39.344697 44.8627727 40.2848485 44.8627727 40.2848485 39.7355987"></polygon>
                        </g>
                    </g>
                </g>
            </g>
        </g>
    </g>
</svg>